<svg width="374" height="114" viewBox="0 0 374 114" fill="none" xmlns="http://www.w3.org/2000/svg">
<rect width="374" height="6" fill="#FEFEFE"/>
<path d="M7.86133 20.0273H22.6562V49.666L50.4395 20.0273H69.873L40.3809 49.666L71.3867 92H52.0508L29.834 60.5547L22.6562 67.9277V92H7.86133V20.0273ZM107.666 37.5078C107.926 37.5078 108.138 37.5241 108.301 37.5566C108.496 37.5566 108.903 37.5729 109.521 37.6055V51.8633C108.643 51.7656 107.861 51.7005 107.178 51.668C106.494 51.6354 105.941 51.6191 105.518 51.6191C99.9186 51.6191 96.1589 53.4421 94.2383 57.0879C93.1641 59.1387 92.627 62.2962 92.627 66.5605V92H78.6133V38.7773H91.8945V48.0547C94.043 44.5065 95.9147 42.0814 97.5098 40.7793C100.114 38.5983 103.499 37.5078 107.666 37.5078ZM147.07 66.1211C146.191 66.6745 145.296 67.1302 144.385 67.4883C143.506 67.8138 142.285 68.123 140.723 68.416L137.598 69.002C134.668 69.5228 132.568 70.1576 131.299 70.9062C129.15 72.1758 128.076 74.1452 128.076 76.8145C128.076 79.1908 128.727 80.916 130.029 81.9902C131.364 83.0319 132.975 83.5527 134.863 83.5527C137.858 83.5527 140.609 82.6738 143.115 80.916C145.654 79.1582 146.973 75.9518 147.07 71.2969V66.1211ZM138.623 59.627C141.195 59.3014 143.034 58.8945 144.141 58.4062C146.126 57.5599 147.119 56.2415 147.119 54.4512C147.119 52.2702 146.354 50.7728 144.824 49.959C143.327 49.1126 141.113 48.6895 138.184 48.6895C134.896 48.6895 132.568 49.5033 131.201 51.1309C130.225 52.3353 129.574 53.9629 129.248 56.0137H115.82C116.113 51.3587 117.415 47.5339 119.727 44.5391C123.405 39.8516 129.72 37.5078 138.672 37.5078C144.499 37.5078 149.674 38.6634 154.199 40.9746C158.724 43.2858 160.986 47.6478 160.986 54.0605V78.4746C160.986 80.1673 161.019 82.2181 161.084 84.627C161.182 86.4499 161.458 87.6868 161.914 88.3379C162.37 88.9889 163.053 89.526 163.965 89.9492V92H148.828C148.405 90.9258 148.112 89.9167 147.949 88.9727C147.786 88.0286 147.656 86.9544 147.559 85.75C145.638 87.8333 143.424 89.6074 140.918 91.0723C137.923 92.7975 134.538 93.6602 130.762 93.6602C125.944 93.6602 121.956 92.293 118.799 89.5586C115.674 86.7917 114.111 82.8854 114.111 77.8398C114.111 71.2969 116.634 66.5605 121.68 63.6309C124.447 62.0358 128.516 60.8965 133.887 60.2129L138.623 59.627ZM175.537 102.205L177.295 102.303C178.662 102.368 179.964 102.319 181.201 102.156C182.438 101.993 183.48 101.619 184.326 101.033C185.14 100.48 185.889 99.3242 186.572 97.5664C187.288 95.8086 187.581 94.7344 187.451 94.3438L167.92 38.7773H183.398L195.02 78.0352L206.006 38.7773H220.801L202.539 91.1211C199.023 101.212 196.24 107.462 194.189 109.871C192.139 112.312 188.037 113.533 181.885 113.533C180.648 113.533 179.655 113.517 178.906 113.484C178.158 113.484 177.035 113.436 175.537 113.338V102.205ZM223.584 49.1777V39.2656H231.006V24.4219H244.775V39.2656H253.418V49.1777H244.775V77.3027C244.775 79.4837 245.052 80.8509 245.605 81.4043C246.159 81.9251 247.852 82.1855 250.684 82.1855C251.107 82.1855 251.546 82.1855 252.002 82.1855C252.49 82.153 252.962 82.1204 253.418 82.0879V92.4883L246.826 92.7324C240.251 92.9603 235.758 91.821 233.35 89.3145C231.787 87.7194 231.006 85.2617 231.006 81.9414V49.1777H223.584ZM291.699 66.1211C290.82 66.6745 289.925 67.1302 289.014 67.4883C288.135 67.8138 286.914 68.123 285.352 68.416L282.227 69.002C279.297 69.5228 277.197 70.1576 275.928 70.9062C273.779 72.1758 272.705 74.1452 272.705 76.8145C272.705 79.1908 273.356 80.916 274.658 81.9902C275.993 83.0319 277.604 83.5527 279.492 83.5527C282.487 83.5527 285.238 82.6738 287.744 80.916C290.283 79.1582 291.602 75.9518 291.699 71.2969V66.1211ZM283.252 59.627C285.824 59.3014 287.663 58.8945 288.77 58.4062C290.755 57.5599 291.748 56.2415 291.748 54.4512C291.748 52.2702 290.983 50.7728 289.453 49.959C287.956 49.1126 285.742 48.6895 282.812 48.6895C279.525 48.6895 277.197 49.5033 275.83 51.1309C274.854 52.3353 274.202 53.9629 273.877 56.0137H260.449C260.742 51.3587 262.044 47.5339 264.355 44.5391C268.034 39.8516 274.349 37.5078 283.301 37.5078C289.128 37.5078 294.303 38.6634 298.828 40.9746C303.353 43.2858 305.615 47.6478 305.615 54.0605V78.4746C305.615 80.1673 305.648 82.2181 305.713 84.627C305.811 86.4499 306.087 87.6868 306.543 88.3379C306.999 88.9889 307.682 89.526 308.594 89.9492V92H293.457C293.034 90.9258 292.741 89.9167 292.578 88.9727C292.415 88.0286 292.285 86.9544 292.188 85.75C290.267 87.8333 288.053 89.6074 285.547 91.0723C282.552 92.7975 279.167 93.6602 275.391 93.6602C270.573 93.6602 266.585 92.293 263.428 89.5586C260.303 86.7917 258.74 82.8854 258.74 77.8398C258.74 71.2969 261.263 66.5605 266.309 63.6309C269.076 62.0358 273.145 60.8965 278.516 60.2129L283.252 59.627ZM317.871 20.2715H331.543V59.041L348.877 39.0215H366.113L347.51 59.3828L366.846 92H350.049L337.305 69.2461L331.543 75.252V92H317.871V20.2715Z" fill="#FEFEFE"/>
</svg>
