<svg width="515" height="72" viewBox="0 0 515 72" fill="none" xmlns="http://www.w3.org/2000/svg">
<path d="M71 0.999995L40.4 29.1L70.7 71H55.3L31.1 37.6L13.4 53.7V71H0.9V0.999995H13.4V36.8L23.7 27.4L33 18.9L52.5 0.999995H71ZM127.48 38.7L137.48 58.6L143.88 71.1H129.88L123.48 58.6L116.78 45.5L116.48 44.9C114.28 41.3 110.38 38.9 105.88 38.9H93.3805V71.1H80.8805V1.09999H125.08C130.28 1.09999 134.98 3.2 138.38 6.59999C141.78 10.1 143.88 14.8 143.88 20C143.88 27.6 139.38 34.2 132.88 37.2C131.18 38 129.38 38.5 127.48 38.7ZM93.3805 26.5L125.08 26.4C125.98 26.4 126.88 26.2 127.68 25.8C129.98 24.8 131.48 22.5 131.48 20C131.48 17.7 130.28 16.1 129.58 15.4C128.78 14.6 127.28 13.6 125.08 13.6H93.3805V26.5ZM215.127 58.5L221.527 71H207.527L201.127 58.5L185.827 28.5L170.527 58.5L164.127 71H150.127L156.527 58.5L185.827 0.999995L215.127 58.5ZM262.53 0.899997H278.23L251.13 36L249.63 37.9V70.9H237.13V38.1L235.43 36L208.33 0.899997H224.13L243.33 25.8L262.53 0.899997ZM208.23 71.2V71H208.43L208.23 71.2ZM278.23 71.2L278.13 71H278.23V71.2ZM284.301 1.09999H354.201V13.6H325.501V71.1H313.001V13.6H284.301V1.09999ZM383.181 13.5C379.681 13.5 376.781 16.4 376.781 19.9V26.4H421.781V38.9H376.781V52.1C376.781 55.6 379.681 58.5 383.181 58.5H434.281V71H383.181C372.781 71 364.381 62.5 364.381 52.1V19.9C364.381 9.5 372.781 0.999995 383.181 0.999995H434.281V13.5H383.181ZM514.262 0.999995L483.662 29.1L513.962 71H498.562L474.362 37.6L456.662 53.7V71H444.162V0.999995H456.662V36.8L466.962 27.4L476.262 18.9L495.762 0.999995H514.262Z" fill="white"/>
</svg>
